<?xml version="1.0" standalone="no"?>
<svg xmlns:xlink="http://www.w3.org/1999/xlink" id="wave" style="transform:rotate(0deg); transition: 0.3s" viewBox="0 0 1440 370" version="1.1" xmlns="http://www.w3.org/2000/svg"><defs><linearGradient id="sw-gradient-0" x1="0" x2="0" y1="1" y2="0"><stop stop-color="rgba(255, 255, 255, 1)" offset="0%"/><stop stop-color="rgba(241.709, 241.709, 241.709, 1)" offset="100%"/></linearGradient></defs><path style="transform:translate(0, 0px); opacity:1" fill="url(#sw-gradient-0)" d="M0,148L40,148C80,148,160,148,240,172.7C320,197,400,247,480,271.3C560,296,640,296,720,259C800,222,880,148,960,111C1040,74,1120,74,1200,104.8C1280,136,1360,197,1440,215.8C1520,234,1600,210,1680,166.5C1760,123,1840,62,1920,49.3C2000,37,2080,74,2160,117.2C2240,160,2320,210,2400,240.5C2480,271,2560,284,2640,271.3C2720,259,2800,222,2880,191.2C2960,160,3040,136,3120,148C3200,160,3280,210,3360,203.5C3440,197,3520,136,3600,123.3C3680,111,3760,148,3840,141.8C3920,136,4000,86,4080,61.7C4160,37,4240,37,4320,80.2C4400,123,4480,210,4560,215.8C4640,222,4720,148,4800,123.3C4880,99,4960,123,5040,166.5C5120,210,5200,271,5280,296C5360,321,5440,308,5520,296C5600,284,5680,271,5720,265.2L5760,259L5760,370L5720,370C5680,370,5600,370,5520,370C5440,370,5360,370,5280,370C5200,370,5120,370,5040,370C4960,370,4880,370,4800,370C4720,370,4640,370,4560,370C4480,370,4400,370,4320,370C4240,370,4160,370,4080,370C4000,370,3920,370,3840,370C3760,370,3680,370,3600,370C3520,370,3440,370,3360,370C3280,370,3200,370,3120,370C3040,370,2960,370,2880,370C2800,370,2720,370,2640,370C2560,370,2480,370,2400,370C2320,370,2240,370,2160,370C2080,370,2000,370,1920,370C1840,370,1760,370,1680,370C1600,370,1520,370,1440,370C1360,370,1280,370,1200,370C1120,370,1040,370,960,370C880,370,800,370,720,370C640,370,560,370,480,370C400,370,320,370,240,370C160,370,80,370,40,370L0,370Z"/><defs><linearGradient id="sw-gradient-1" x1="0" x2="0" y1="1" y2="0"><stop stop-color="rgba(255, 255, 255, 1)" offset="0%"/><stop stop-color="rgba(234.879, 210.872, 196.086, 1)" offset="100%"/></linearGradient></defs><path style="transform:translate(0, 50px); opacity:0.9" fill="url(#sw-gradient-1)" d="M0,333L40,326.8C80,321,160,308,240,259C320,210,400,123,480,123.3C560,123,640,210,720,222C800,234,880,173,960,148C1040,123,1120,136,1200,129.5C1280,123,1360,99,1440,86.3C1520,74,1600,74,1680,92.5C1760,111,1840,148,1920,178.8C2000,210,2080,234,2160,222C2240,210,2320,160,2400,123.3C2480,86,2560,62,2640,74C2720,86,2800,136,2880,178.8C2960,222,3040,259,3120,283.7C3200,308,3280,321,3360,289.8C3440,259,3520,185,3600,178.8C3680,173,3760,234,3840,228.2C3920,222,4000,148,4080,104.8C4160,62,4240,49,4320,37C4400,25,4480,12,4560,30.8C4640,49,4720,99,4800,98.7C4880,99,4960,49,5040,55.5C5120,62,5200,123,5280,178.8C5360,234,5440,284,5520,265.2C5600,247,5680,160,5720,117.2L5760,74L5760,370L5720,370C5680,370,5600,370,5520,370C5440,370,5360,370,5280,370C5200,370,5120,370,5040,370C4960,370,4880,370,4800,370C4720,370,4640,370,4560,370C4480,370,4400,370,4320,370C4240,370,4160,370,4080,370C4000,370,3920,370,3840,370C3760,370,3680,370,3600,370C3520,370,3440,370,3360,370C3280,370,3200,370,3120,370C3040,370,2960,370,2880,370C2800,370,2720,370,2640,370C2560,370,2480,370,2400,370C2320,370,2240,370,2160,370C2080,370,2000,370,1920,370C1840,370,1760,370,1680,370C1600,370,1520,370,1440,370C1360,370,1280,370,1200,370C1120,370,1040,370,960,370C880,370,800,370,720,370C640,370,560,370,480,370C400,370,320,370,240,370C160,370,80,370,40,370L0,370Z"/></svg>